<svg width="240" height="240" viewBox="0 0 240 240" fill="none" xmlns="http://www.w3.org/2000/svg">
<path d="M112.17 5.28244C115.829 -0.427487 124.171 -0.427477 127.83 5.28245L139.41 23.3554C142.001 27.3997 147.246 28.805 151.513 26.5982L170.578 16.7367C176.601 13.621 183.826 17.7925 184.14 24.5667L185.132 46.0084C185.354 50.8065 189.194 54.646 193.992 54.868L215.433 55.8602C222.208 56.1737 226.379 63.3989 223.263 69.4222L213.402 88.4874C211.195 92.7536 212.6 97.9986 216.645 100.59L234.718 112.17C240.427 115.829 240.427 124.171 234.718 127.83L216.645 139.41C212.6 142.001 211.195 147.246 213.402 151.513L223.263 170.578C226.379 176.601 222.208 183.826 215.433 184.14L193.992 185.132C189.194 185.354 185.354 189.194 185.132 193.992L184.14 215.433C183.826 222.208 176.601 226.379 170.578 223.263L151.513 213.402C147.246 211.195 142.001 212.6 139.41 216.645L127.83 234.718C124.171 240.427 115.829 240.427 112.17 234.718L100.59 216.645C97.9986 212.6 92.7536 211.195 88.4873 213.402L69.4222 223.263C63.3989 226.379 56.1737 222.208 55.8602 215.433L54.868 193.992C54.646 189.194 50.8065 185.354 46.0084 185.132L24.5667 184.14C17.7925 183.826 13.621 176.601 16.7367 170.578L26.5983 151.513C28.805 147.246 27.3996 142.001 23.3554 139.41L5.28244 127.83C-0.427487 124.171 -0.427477 115.829 5.28245 112.17L23.3554 100.59C27.3997 97.9986 28.805 92.7536 26.5982 88.4873L16.7367 69.4222C13.621 63.3989 17.7925 56.1737 24.5667 55.8602L46.0084 54.868C50.8065 54.646 54.646 50.8065 54.868 46.0084L55.8602 24.5667C56.1737 17.7925 63.3989 13.621 69.4223 16.7367L88.4874 26.5983C92.7536 28.805 97.9986 27.3996 100.59 23.3554L112.17 5.28244Z" fill="#FFF1B2"/>
<path d="M103.186 139.003V93.5299C103.186 89.6408 101.551 77.9733 98.8771 70.9429C64.408 70.6438 56.8308 92.0341 56.5336 99.3636C55.7908 122.399 77.0368 122.998 74.8082 108.488C73.0253 96.9703 91.8942 92.0341 92.4885 110.582C88.477 136.759 46.5792 135.862 48.9564 99.2141C49.9964 82.9095 65.5966 67.9513 96.6485 66.9042C102.294 66.1563 115.369 66.7546 141.369 66.7546C132.158 76.0287 128.74 88.7433 128.74 93.5299V141.546C128.74 154.56 128.592 166.975 136.763 166.975C143.895 166.975 151.175 154.56 160.535 135.712L166.032 171.612H96.6485C104.226 152.465 103.186 143.939 103.186 139.003Z" fill="black"/>
<path d="M111.749 5.0127C115.604 -1.0042 124.396 -1.0042 128.251 5.0127L139.831 23.0859C142.283 26.9126 147.246 28.2424 151.283 26.1543L170.348 16.293C176.695 13.0098 184.309 17.4055 184.64 24.5439L185.632 45.9854C185.842 50.5254 189.475 54.158 194.015 54.3682L215.456 55.3604C222.595 55.6907 226.99 63.3051 223.707 69.6523L213.846 88.7168C211.758 92.7536 213.087 97.7169 216.914 100.169L234.987 111.749C241.004 115.604 241.004 124.396 234.987 128.251L216.914 139.831C213.087 142.283 211.758 147.246 213.846 151.283L223.707 170.348C226.99 176.695 222.595 184.309 215.456 184.64L194.015 185.632C189.475 185.842 185.842 189.475 185.632 194.015L184.64 215.456C184.309 222.595 176.695 226.99 170.348 223.707L151.283 213.846C147.246 211.758 142.283 213.087 139.831 216.914L128.251 234.987C124.396 241.004 115.604 241.004 111.749 234.987L100.169 216.914C97.7169 213.087 92.7536 211.758 88.7168 213.846L69.6523 223.707C63.3051 226.99 55.6907 222.595 55.3604 215.456L54.3682 194.015C54.158 189.475 50.5254 185.842 45.9854 185.632L24.5439 184.64C17.4055 184.309 13.0098 176.695 16.293 170.348L26.1543 151.283C28.2424 147.246 26.9126 142.283 23.0859 139.831L5.0127 128.251C-1.0042 124.396 -1.00419 115.604 5.0127 111.749L23.0859 100.169C26.9126 97.7169 28.2424 92.7536 26.1543 88.7168L16.293 69.6523C13.0098 63.3051 17.4055 55.6907 24.5439 55.3604L45.9854 54.3682C50.5254 54.158 54.158 50.5254 54.3682 45.9854L55.3604 24.5439C55.6907 17.4055 63.3051 13.0098 69.6523 16.293L88.7168 26.1543C92.7536 28.2424 97.7169 26.9126 100.169 23.0859L111.749 5.0127Z" stroke="#D3B016"/>
</svg>
