<svg width="41" height="41" viewBox="0 0 41 41" fill="none" xmlns="http://www.w3.org/2000/svg">
<path d="M14.432 40.057C16.4 40.6515 18.3885 41 20.5 41C25.9369 41 31.1512 38.8402 34.9957 34.9957C38.8402 31.1512 41 25.9369 41 20.5C41 17.8079 40.4698 15.1422 39.4395 12.655C38.4093 10.1678 36.8993 7.90791 34.9957 6.00431C33.0921 4.10071 30.8322 2.59069 28.345 1.56047C25.8578 0.530248 23.1921 0 20.5 0C17.8079 0 15.1422 0.530248 12.655 1.56047C10.1678 2.59069 7.90791 4.10071 6.00431 6.00431C2.15982 9.84881 0 15.0631 0 20.5C0 29.2125 5.4735 36.695 13.202 39.647C13.0175 38.048 12.833 35.4035 13.202 33.579L15.5595 23.452C15.5595 23.452 14.965 22.263 14.965 20.377C14.965 17.548 16.728 15.4365 18.737 15.4365C20.5 15.4365 21.32 16.728 21.32 18.3885C21.32 20.1515 20.1515 22.673 19.557 25.092C19.2085 27.101 20.623 28.864 22.673 28.864C26.322 28.864 29.151 24.969 29.151 19.475C29.151 14.555 25.625 11.193 20.5615 11.193C14.7805 11.193 11.3775 15.498 11.3775 20.0285C11.3775 21.7915 11.9515 23.575 12.8945 24.7435C13.079 24.8665 13.079 25.0305 13.0175 25.338L12.423 27.5725C12.423 27.921 12.1975 28.044 11.849 27.798C9.225 26.65 7.708 22.919 7.708 19.9055C7.708 13.4275 12.3 7.544 21.156 7.544C28.208 7.544 33.702 12.6075 33.702 19.3315C33.702 26.3835 29.3355 32.0415 23.083 32.0415C21.0945 32.0415 19.147 30.9755 18.45 29.725L17.0765 34.5835C16.605 36.3465 15.3135 38.704 14.432 40.1185V40.057Z" fill="black"/>
</svg>
