<svg width="42" height="42" viewBox="0 0 42 42" fill="none" xmlns="http://www.w3.org/2000/svg">
<path d="M20.5304 0C16.4699 0 12.5005 1.20408 9.12432 3.45999C5.74811 5.7159 3.11669 8.9223 1.56279 12.6737C0.00889548 16.4252 -0.397674 20.5531 0.394495 24.5356C1.18666 28.5181 3.14199 32.1763 6.01321 35.0475C8.88444 37.9187 12.5426 39.8741 16.5251 40.6662C20.5076 41.4584 24.6356 41.0518 28.387 39.498C32.1384 37.9441 35.3448 35.3126 37.6007 31.9364C39.8567 28.5602 41.0607 24.5909 41.0607 20.5304C41.0553 15.087 38.8905 9.86822 35.0415 6.01921C31.1925 2.17019 25.9737 0.00543517 20.5304 0ZM32.7234 15.8351V17.1613C32.7234 17.2628 32.7031 17.3633 32.6636 17.4568C32.6242 17.5504 32.5664 17.635 32.4937 17.7059C32.4209 17.7767 32.3348 17.8322 32.2402 17.8691C32.1457 17.9061 32.0447 17.9237 31.9432 17.921C29.7755 17.7678 27.7017 16.9763 25.9832 15.6462V25.3529C25.9828 26.4272 25.7683 27.4907 25.3523 28.4812C24.9364 29.4717 24.3273 30.3694 23.5607 31.122C22.7877 31.8942 21.8684 32.5044 20.8567 32.9169C19.8449 33.3293 18.761 33.5358 17.6684 33.524C15.4714 33.5208 13.3627 32.6588 11.7927 31.122C10.7936 30.1148 10.074 28.8648 9.7047 27.4951C9.33537 26.1254 9.329 24.6831 9.68624 23.3102C10.0127 21.9921 10.6717 20.7808 11.6017 19.7933C12.2953 18.9456 13.1696 18.2636 14.1606 17.7972C15.1517 17.3308 16.2344 17.0918 17.3297 17.0977H19.0132V20.594C19.0139 20.6956 18.993 20.7961 18.9518 20.8889C18.9107 20.9817 18.8502 21.0647 18.7744 21.1323C18.6987 21.1999 18.6093 21.2506 18.5125 21.281C18.4156 21.3114 18.3133 21.3207 18.2125 21.3085C17.235 21.0149 16.1817 21.1122 15.2747 21.5801C14.3676 22.0479 13.6776 22.8497 13.3502 23.8164C13.0227 24.783 13.0834 25.839 13.5194 26.7618C13.9553 27.6847 14.7326 28.4021 15.6873 28.763C16.2416 29.0813 16.8616 29.2681 17.498 29.3112C17.9908 29.3317 18.4835 29.2701 18.9516 29.1223C19.733 28.8587 20.4127 28.3578 20.8959 27.6895C21.3792 27.0211 21.6418 26.2187 21.6472 25.394V7.7071C21.6472 7.51143 21.7248 7.32375 21.863 7.18521C22.0011 7.04666 22.1886 6.96855 22.3843 6.96801H25.2893C25.4781 6.96824 25.6596 7.04068 25.7966 7.17047C25.9337 7.30027 26.0159 7.47758 26.0264 7.66604C26.1323 8.5719 26.42 9.44705 26.8722 10.239C27.3245 11.031 27.932 11.7236 28.6583 12.2751C29.6399 13.0119 30.8057 13.4637 32.0274 13.5808C32.2104 13.5965 32.3815 13.6779 32.5091 13.81C32.6367 13.9421 32.712 14.116 32.7213 14.2994L32.7234 15.8351Z" fill="black"/>
</svg>
