<svg width="20" height="12" viewBox="0 0 20 12" fill="none" xmlns="http://www.w3.org/2000/svg">
<path d="M11.1808 11.1842L19.5078 2.86019C19.6631 2.70497 19.7863 2.52068 19.8704 2.31785C19.9544 2.11502 19.9977 1.89761 19.9977 1.67805C19.9978 1.23463 19.8218 0.809344 19.5083 0.495742C19.353 0.340462 19.1688 0.217276 18.9659 0.133217C18.7631 0.0491591 18.5457 0.00587543 18.3261 0.00583568C17.8827 0.0057554 17.4574 0.181826 17.1438 0.495314L9.99923 7.65397L2.85723 0.492728C2.70247 0.336632 2.51833 0.212725 2.31544 0.128153C2.11254 0.0435812 1.89491 1.85645e-05 1.6751 -2.123e-05C1.45529 -6.10241e-05 1.23764 0.0434228 1.03472 0.127921C0.831792 0.21242 0.64761 0.33626 0.492789 0.492299C0.336692 0.647064 0.212782 0.831204 0.128212 1.0341C0.0436393 1.23699 7.80168e-05 1.45462 3.82225e-05 1.67443C-1.57181e-06 1.89425 0.0434809 2.11189 0.12798 2.31482C0.212477 2.51774 0.33632 2.70192 0.492361 2.85675L8.81637 11.1838C8.97113 11.3399 9.15527 11.4638 9.35816 11.5483C9.56106 11.6329 9.77869 11.6765 9.9985 11.6765C10.2183 11.6766 10.436 11.6331 10.6389 11.5486C10.8418 11.4641 11.026 11.3402 11.1808 11.1842Z" fill="black"/>
</svg>
