<svg width="20" height="12" viewBox="0 0 20 12" fill="none" xmlns="http://www.w3.org/2000/svg">
<path d="M11.1808 0.492317L19.5078 8.81632C19.6631 8.97155 19.7863 9.15584 19.8704 9.35867C19.9544 9.5615 19.9977 9.7789 19.9977 9.99846C19.9978 10.4419 19.8218 10.8672 19.5083 11.1808C19.353 11.3361 19.1688 11.4592 18.9659 11.5433C18.7631 11.6274 18.5457 11.6706 18.3261 11.6707C17.8827 11.6708 17.4574 11.4947 17.1438 11.1812L9.99923 4.02255L2.85723 11.1838C2.70247 11.3399 2.51833 11.4638 2.31544 11.5484C2.11254 11.6329 1.89491 11.6765 1.6751 11.6765C1.45529 11.6766 1.23764 11.6331 1.03472 11.5486C0.831792 11.4641 0.64761 11.3403 0.492789 11.1842C0.336692 11.0294 0.212782 10.8453 0.128212 10.6424C0.0436393 10.4395 7.80168e-05 10.2219 3.82225e-05 10.0021C-1.57181e-06 9.78227 0.0434809 9.56462 0.12798 9.3617C0.212477 9.15877 0.33632 8.97459 0.492361 8.81977L8.81637 0.492745C8.97113 0.33665 9.15527 0.212739 9.35816 0.128168C9.56106 0.0435961 9.77869 3.48556e-05 9.9985 -4.93873e-06C10.2183 -4.4733e-05 10.436 0.0434377 10.6389 0.127936C10.8418 0.212434 11.026 0.336278 11.1808 0.492317Z" fill="black"/>
</svg>
