<svg width="104" height="104" viewBox="0 0 104 104" fill="none" xmlns="http://www.w3.org/2000/svg">
<path d="M51.158 1.31409C51.5514 0.700082 52.4486 0.70008 52.842 1.31409L61.333 14.5659C61.6116 15.0008 62.1756 15.152 62.6344 14.9147L76.6138 7.68372C77.2615 7.34868 78.0384 7.79725 78.0721 8.5257L78.7996 24.2477C78.8235 24.7636 79.2364 25.1765 79.7523 25.2004L95.4743 25.9279C96.2028 25.9616 96.6513 26.7385 96.3163 27.3862L89.0853 41.3656C88.848 41.8243 88.9992 42.3884 89.4341 42.667L102.686 51.158C103.3 51.5514 103.3 52.4486 102.686 52.842L89.4341 61.333C88.9992 61.6116 88.848 62.1756 89.0853 62.6344L96.3163 76.6138C96.6513 77.2615 96.2028 78.0384 95.4743 78.0721L79.7523 78.7996C79.2364 78.8235 78.8235 79.2364 78.7996 79.7523L78.0721 95.4743C78.0384 96.2028 77.2615 96.6513 76.6138 96.3163L62.6344 89.0853C62.1757 88.848 61.6116 88.9992 61.333 89.4341L52.842 102.686C52.4486 103.3 51.5514 103.3 51.158 102.686L42.667 89.4341C42.3884 88.9992 41.8244 88.848 41.3656 89.0853L27.3862 96.3163C26.7385 96.6513 25.9616 96.2028 25.9279 95.4743L25.2004 79.7523C25.1765 79.2364 24.7636 78.8235 24.2477 78.7996L8.52571 78.0721C7.79725 78.0384 7.34868 77.2615 7.68372 76.6138L14.9147 62.6344C15.152 62.1756 15.0008 61.6116 14.5659 61.333L1.31409 52.842C0.700082 52.4486 0.70008 51.5514 1.31409 51.158L14.5659 42.667C15.0008 42.3884 15.152 41.8244 14.9147 41.3656L7.68372 27.3862C7.34868 26.7385 7.79725 25.9616 8.5257 25.9279L24.2477 25.2004C24.7636 25.1765 25.1765 24.7636 25.2004 24.2477L25.9279 8.52571C25.9616 7.79725 26.7385 7.34868 27.3862 7.68372L41.3656 14.9147C41.8244 15.152 42.3884 15.0008 42.667 14.5659L51.158 1.31409Z" fill="#F4681A"/>
<path d="M31.2289 44.3089L36.39 42.7477C37.4008 42.442 38.3126 42.4169 39.0947 42.6818C39.8769 42.9467 40.4177 43.5186 40.6956 44.4375C40.8532 44.9582 40.8497 45.444 40.7098 45.9209C40.5545 46.4025 40.2903 46.8 39.8911 47.1381C41.324 47.1226 42.2665 47.807 42.6881 49.2006C43.0031 50.242 42.8917 51.1449 42.374 51.92C41.8409 52.6998 41.0514 53.2395 39.9793 53.5638L34.5273 55.2129L31.2289 44.3089ZM34.1173 45.4578L34.8956 48.0307L37.0703 47.3729C38.2648 47.0115 38.7477 46.3974 38.4929 45.5551C38.34 45.0497 38.0696 44.7638 37.6924 44.6773C37.2999 44.5954 36.8433 44.6332 36.292 44.8L34.1173 45.4578ZM35.3866 49.654L36.27 52.6297L38.6744 51.9024C39.3023 51.7125 39.76 51.457 40.0673 51.1468C40.37 50.8212 40.438 50.3827 40.2619 49.8008C40.0813 49.2035 39.7617 48.8655 39.3186 48.7823C38.8755 48.699 38.327 48.7646 37.6685 48.9638L35.3866 49.654ZM50.2054 38.5687L50.7984 40.529L44.9941 42.2847L45.7121 44.6585L51.0416 43.0464L51.6114 44.9301L46.2819 46.5422L47.0926 49.2223L53.0041 47.4341L53.611 49.4403L45.3257 51.9465L42.0273 41.0425L50.2054 38.5687ZM61.0109 38.844L58.7336 39.5495C58.3129 38.49 57.4616 38.1624 56.1751 38.5515C55.6238 38.7183 55.2274 38.9552 54.986 39.2623C54.7445 39.5693 54.6687 39.9266 54.7892 40.3248C54.8262 40.4473 54.8939 40.5605 54.957 40.6585C55.0307 40.7365 55.1351 40.8052 55.2701 40.8647C55.4204 40.9195 55.5461 40.9483 55.6719 40.9772C55.8129 41.0014 55.9999 41.0117 56.2328 41.0081C56.4658 41.0045 56.6834 41.0055 56.8857 41.0112C57.0834 41.0015 57.3469 40.9887 57.6963 40.9833C58.0564 40.9579 58.3552 40.9511 58.6234 40.9536C59.7881 40.9356 60.7156 41.0729 61.3753 41.3749C62.035 41.6768 62.4945 42.2566 62.7539 43.1142C62.9392 43.7268 62.9835 44.3152 62.8621 44.8534C62.7561 45.3869 62.515 45.861 62.1696 46.2664C61.8242 46.6718 61.4096 47.0145 60.926 47.2945C60.4423 47.5745 59.9142 47.8179 59.3322 47.9939C57.862 48.4386 56.5915 48.4385 55.5607 48.0148C54.5299 47.5911 53.8092 46.756 53.4233 45.5354L55.7971 44.8174C56.2553 46.1665 57.2908 46.6055 58.8835 46.1237C59.5114 45.9338 59.9598 45.6477 60.2486 45.2762C60.5374 44.9046 60.5993 44.5014 60.465 44.0573C60.3491 43.6745 60.1126 43.4451 59.7247 43.3786C59.3322 43.2967 58.5736 43.2754 57.4089 43.2934C57.343 43.2966 57.2924 43.2952 57.2618 43.3045C57.2265 43.2984 57.1913 43.2924 57.1254 43.2956C57.0748 43.2942 57.0242 43.2928 56.9783 43.3067C56.5783 43.3107 56.3101 43.3082 56.1431 43.3086C55.9913 43.3043 55.7385 43.2972 55.3997 43.2827C55.0564 43.2528 54.7989 43.2304 54.6332 43.1802C54.4523 43.1347 54.2421 43.0478 53.9814 42.9595C53.716 42.8559 53.5273 42.7291 53.3798 42.5731C53.2323 42.4172 53.0756 42.2306 52.9202 41.9934C52.7649 41.7562 52.6509 41.4898 52.5582 41.1835C52.2571 40.188 52.3991 39.2759 52.9842 38.447C53.5739 37.6334 54.492 37.0213 55.7631 36.6368C56.9883 36.2662 58.0717 36.2561 59.0288 36.6018C59.9706 36.9521 60.6282 37.6893 61.0109 38.844ZM70.005 32.5795L70.6211 34.6164L67.3438 35.6078L70.026 44.475L67.6216 45.2023L64.9394 36.3351L61.662 37.3264L61.0459 35.2896L70.005 32.5795ZM35.4328 63.297L33.1556 64.0026C32.7348 62.943 31.8835 62.6155 30.597 63.0046C30.0457 63.1714 29.6493 63.4083 29.4079 63.7154C29.1664 64.0224 29.0906 64.3797 29.2111 64.7779C29.2481 64.9004 29.3158 65.0136 29.3789 65.1116C29.4526 65.1896 29.557 65.2583 29.692 65.3177C29.8423 65.3726 29.968 65.4014 30.0938 65.4302C30.2348 65.4544 30.4218 65.4647 30.6547 65.4611C30.8877 65.4575 31.1053 65.4586 31.3076 65.4642C31.5053 65.4546 31.7688 65.4417 32.1182 65.4363C32.4783 65.411 32.7772 65.4042 33.0454 65.4066C34.21 65.3887 35.1375 65.526 35.7972 65.8279C36.4569 66.1299 36.9164 66.7096 37.1758 67.5673C37.3612 68.1799 37.4054 68.7682 37.284 69.3064C37.178 69.84 36.9369 70.3141 36.5915 70.7195C36.2461 71.1248 35.8315 71.4675 35.3479 71.7476C34.8643 72.0276 34.3361 72.2709 33.7541 72.447C32.2839 72.8917 31.0135 72.8915 29.9826 72.4678C28.9518 72.0442 28.2311 71.209 27.8452 69.9885L30.219 69.2705C30.6772 70.6196 31.7127 71.0586 33.3054 70.5768C33.9333 70.3869 34.3817 70.1008 34.6705 69.7292C34.9593 69.3577 35.0212 68.9545 34.8869 68.5104C34.7711 68.1275 34.5345 67.8982 34.1466 67.8316C33.7541 67.7498 32.9955 67.7285 31.8308 67.7465C31.7649 67.7497 31.7143 67.7483 31.6837 67.7576C31.6484 67.7515 31.6132 67.7455 31.5473 67.7487C31.4967 67.7473 31.4461 67.7459 31.4002 67.7598C31.0002 67.7637 30.732 67.7613 30.565 67.7617C30.4132 67.7574 30.1604 67.7503 29.8216 67.7358C29.4783 67.7059 29.2208 67.6835 29.0551 67.6333C28.8742 67.5877 28.664 67.5009 28.4033 67.4126C28.138 67.309 27.9492 67.1822 27.8017 67.0262C27.6542 66.8702 27.4975 66.6836 27.3421 66.4464C27.1868 66.2093 27.0728 65.9429 26.9801 65.6366C26.679 64.6411 26.821 63.7289 27.4061 62.9C27.9958 62.0864 28.9139 61.4744 30.185 61.0899C31.4102 60.7193 32.4937 60.7092 33.4507 61.0549C34.3925 61.4052 35.0501 62.1424 35.4328 63.297ZM44.5035 57.0095L45.0965 58.9697L39.2922 60.7255L40.0102 63.0992L45.3397 61.4871L45.9095 63.3708L40.58 64.9829L41.3907 67.663L47.3022 65.8749L47.9091 67.8811L39.6238 70.3873L36.3255 59.4832L44.5035 57.0095ZM56.6523 62.9964L57.273 65.0486L49.5544 67.3834L46.2561 56.4793L48.6452 55.7566L51.3228 64.6085L56.6523 62.9964ZM65.7304 60.2504L66.3512 62.3025L58.6326 64.6373L55.3342 53.7333L57.7233 53.0106L60.4009 61.8625L65.7304 60.2504ZM72.5904 48.5135L73.1834 50.4738L67.3791 52.2295L68.0971 54.6033L73.4266 52.9911L73.9964 54.8748L68.6669 56.487L69.4776 59.167L75.3891 57.3789L75.996 59.3851L67.7107 61.8913L64.4124 50.9872L72.5904 48.5135ZM74.4349 47.9555L79.8609 46.3309C80.9329 46.0067 81.8953 45.983 82.742 46.2952C83.5687 46.5968 84.1572 47.2713 84.4722 48.3127C84.6621 48.9406 84.6757 49.5383 84.5131 50.1057C84.3504 50.6731 84.0235 51.1397 83.5523 51.5162C84.5421 51.4174 85.3375 52.1129 85.9294 53.5721C85.9433 53.618 85.9896 53.7712 86.1036 54.0376C86.1977 54.2933 86.2778 54.5031 86.3548 54.6469C86.4164 54.7954 86.5073 54.9853 86.6074 55.2057C86.7029 55.4109 86.8091 55.5961 86.9166 55.7307C87.0242 55.8653 87.1179 55.954 87.233 56.0027L84.752 56.7532C84.6091 56.6125 84.483 56.4167 84.3783 56.1809C84.2582 55.9498 84.1303 55.6374 83.9792 55.2485C83.8281 54.8596 83.748 54.6498 83.7341 54.6039C83.4106 53.8659 83.0693 53.4008 82.6703 53.1872C82.276 52.9889 81.709 52.9932 80.9433 53.2248L78.8145 53.8688L80.107 58.1416L77.7332 58.8596L74.4349 47.9555ZM77.3831 49.1365L78.2957 52.1535L80.5623 51.4679C81.2208 51.2687 81.7091 51.004 82.0118 50.6784C82.3145 50.3528 82.3931 49.8944 82.2078 49.2818C82.0318 48.6999 81.7322 48.3726 81.3044 48.2847C80.872 48.1815 80.3694 48.2332 79.7568 48.4185L77.3831 49.1365Z" fill="black"/>
</svg>
