<svg width="260" height="90" viewBox="0 0 260 90" fill="none" xmlns="http://www.w3.org/2000/svg">
<path d="M151.664 40.5566C159.602 40.1045 161.178 44.5126 161.065 50.7855C160.728 65.8743 160.728 67.1177 161.122 72.3733C162.135 84.7497 165.4 89.3274 171.479 87.4624C177.108 85.7105 173.9 80.681 171.254 82.3763C167.595 84.7498 162.81 79.494 168.89 76.0467C179.529 72.4864 185.102 86.3888 171.648 89.5535C165.231 91.0228 152.34 89.8924 150.539 69.9999C150.088 62.9923 150.37 56.3802 150.426 49.8247C150.483 48.6378 150.482 44.004 147.499 44.6257C144.853 45.1908 143.728 51.3506 143.953 53.5546V69.2651C143.953 71.2996 144.572 72.8257 145.472 73.4473H131.794C132.694 72.8257 133.313 71.2996 133.313 69.2651V49.8247C133.313 48.6379 133.314 45.9819 131.512 45.3602C129.092 44.5125 126.84 48.4119 126.84 48.4119V69.2651C126.84 71.2996 127.459 72.8257 128.36 73.4473H114.681C115.582 72.8256 116.201 71.2996 116.201 69.2651V46.321C116.201 44.2866 115.582 42.7605 114.681 42.1389H128.304C127.403 43.0431 126.784 45.5299 126.84 46.6036C129.092 42.5912 131.4 41.1783 135.847 41.1217C139.787 41.0652 142.489 42.7607 142.714 52.4809C142.939 41.6305 148.681 40.7262 151.664 40.5566Z" fill="black"/>
<path d="M100.385 42.6477C100.385 28.0109 114.008 23.8287 121.832 25.7501C135.23 29.0278 129.713 42.8172 119.074 39.2569C112.995 35.8096 117.779 30.5538 121.438 32.9273C124.084 34.6226 127.293 29.5931 121.663 27.8412C115.19 25.8632 110.799 33.7751 111.137 42.5346C111.136 42.5898 111.08 48.2277 111.024 69.2651C111.024 71.2996 111.644 72.8256 112.544 73.1647V73.4473H100.948L100.385 69.6608C98.8653 71.9213 95.1502 74.0124 92.6734 74.0124C86.4813 74.0124 83.2726 71.0736 83.2726 64.8006V46.321C83.2726 44.2866 82.6536 42.7605 81.7529 42.4214V42.1389H93.9116V64.8006C93.9116 68.0219 95.2065 69.6042 97.4582 69.6042C99.0906 69.6042 100.385 68.4176 100.385 66.6657V42.6477Z" fill="black"/>
<path fill-rule="evenodd" clip-rule="evenodd" d="M195.973 41.5174C204.079 41.5174 209.708 47.1121 208.02 55.7586H189.725C190.513 62.7096 194.679 67.1177 201.265 67.1177C202.897 67.1177 205.993 66.722 206.95 65.3092L207.457 65.5355C205.599 70.5086 200.195 74.0124 194.566 74.0124C185.672 74.0124 179.762 67.4567 179.762 58.0191C179.762 47.5642 186.967 41.5174 195.973 41.5174ZM195.861 43.3257C192.089 43.3823 189.613 47.0558 189.613 53.3852V54.3457H201.152C201.603 48.8075 200.589 43.2692 195.861 43.3257Z" fill="black"/>
<path fill-rule="evenodd" clip-rule="evenodd" d="M247.812 41.5174C257.213 41.3479 262.335 48.0728 258.958 55.5326C255.918 62.201 244.941 60.8448 241.62 56.2108C242.521 62.8793 246.63 67.1177 253.103 67.1177C254.736 67.1177 257.832 66.722 258.789 65.3092L259.295 65.5355C257.438 70.5086 252.034 74.0124 246.405 74.0124C237.511 74.0124 231.6 67.4568 231.6 58.0191C231.6 47.5642 238.805 41.687 247.812 41.5174ZM252.71 54.4023C258.395 50.1638 254.229 43.7214 249.276 44.004C244.547 44.2865 242.296 47.9033 241.733 53.498C245.392 56.6627 250.345 56.1542 252.71 54.4023Z" fill="black"/>
<path d="M33.497 0.262927C37.4544 -0.259811 46.6187 0.158345 64.843 0.158345C58.3864 6.64033 55.9911 15.5269 55.9911 18.8725V52.4329C55.9911 61.5286 55.8869 70.206 61.6144 70.2061C66.6131 70.2061 71.716 61.5285 78.2768 48.3553L82.13 73.4473H33.497C38.8081 60.0651 38.0793 54.1057 38.0792 50.6555V18.8725C38.0792 16.1541 36.9336 7.9993 35.0591 3.08554C10.8988 2.87645 5.58766 17.8272 5.37938 22.9501C4.85875 39.0505 19.7505 39.4686 18.1884 29.3274C16.9389 21.2772 30.1645 17.8272 30.5811 30.7913C27.7692 49.0872 -1.5979 48.4599 0.0682488 22.8455C0.797223 11.4497 11.732 0.994774 33.497 0.262927Z" fill="black"/>
<path d="M177.438 42.1389C176.256 43.3821 176.425 45.8689 176.425 46.2645V69.2651C176.425 71.2996 177.044 72.8257 177.945 73.4473H164.266C165.167 72.8257 165.786 71.2996 165.786 69.2651V46.321C165.786 44.2866 165.167 42.7605 164.266 42.1389H177.438Z" fill="black"/>
<path d="M223.481 46.8862C228.04 35.2445 239.074 26.9936 249.037 27.3892C256.918 27.7283 259.789 37.1659 252.246 38.9744C245.66 40.2741 240.087 37.1658 244.703 35.4139C248.08 34.1141 248.249 30.667 244.534 31.5711C237.554 33.21 227.984 39.5393 223.481 54.8543V69.2651C223.481 71.2996 224.1 72.8257 225.001 73.4473H211.322C212.223 72.8256 212.842 71.2996 212.842 69.2651V46.321C212.842 44.2867 212.223 42.1392 211.322 41.5174H224.607C224.044 43.5518 223.706 43.8344 223.481 45.8688V46.8862Z" fill="black"/>
<path d="M170.74 23.9984C171.921 27.3322 173.272 30.4965 173.385 30.8363C174.286 31.2884 176.763 32.6448 178.451 33.4925L173.385 34.2836L170.74 40.6132L168.544 34.2836L163.253 33.6056C163.253 33.6056 166.799 31.5146 168.262 30.6668C168.769 29.7626 169.389 28.1238 170.74 23.9984Z" fill="black"/>
<path d="M192.314 35.4704C187.361 33.3794 192.371 27.2195 195.523 31.1754L201.771 39.0872L201.603 39.3698L192.314 35.4704Z" fill="black"/>
</svg>
