<svg width="104" height="104" viewBox="0 0 104 104" fill="none" xmlns="http://www.w3.org/2000/svg">
<path d="M51.158 1.31409C51.5514 0.700082 52.4486 0.70008 52.842 1.31409L61.333 14.5659C61.6116 15.0008 62.1756 15.152 62.6344 14.9147L76.6138 7.68372C77.2615 7.34868 78.0384 7.79725 78.0721 8.5257L78.7996 24.2477C78.8235 24.7636 79.2364 25.1765 79.7523 25.2004L95.4743 25.9279C96.2028 25.9616 96.6513 26.7385 96.3163 27.3862L89.0853 41.3656C88.848 41.8243 88.9992 42.3884 89.4341 42.667L102.686 51.158C103.3 51.5514 103.3 52.4486 102.686 52.842L89.4341 61.333C88.9992 61.6116 88.848 62.1756 89.0853 62.6344L96.3163 76.6138C96.6513 77.2615 96.2028 78.0384 95.4743 78.0721L79.7523 78.7996C79.2364 78.8235 78.8235 79.2364 78.7996 79.7523L78.0721 95.4743C78.0384 96.2028 77.2615 96.6513 76.6138 96.3163L62.6344 89.0853C62.1757 88.848 61.6116 88.9992 61.333 89.4341L52.842 102.686C52.4486 103.3 51.5514 103.3 51.158 102.686L42.667 89.4341C42.3884 88.9992 41.8244 88.848 41.3656 89.0853L27.3862 96.3163C26.7385 96.6513 25.9616 96.2028 25.9279 95.4743L25.2004 79.7523C25.1765 79.2364 24.7636 78.8235 24.2477 78.7996L8.52571 78.0721C7.79725 78.0384 7.34868 77.2615 7.68372 76.6138L14.9147 62.6344C15.152 62.1756 15.0008 61.6116 14.5659 61.333L1.31409 52.842C0.700082 52.4486 0.70008 51.5514 1.31409 51.158L14.5659 42.667C15.0008 42.3884 15.152 41.8244 14.9147 41.3656L7.68372 27.3862C7.34868 26.7385 7.79725 25.9616 8.5257 25.9279L24.2477 25.2004C24.7636 25.1765 25.1765 24.7636 25.2004 24.2477L25.9279 8.52571C25.9616 7.79725 26.7385 7.34868 27.3862 7.68372L41.3656 14.9147C41.8244 15.152 42.3884 15.0008 42.667 14.5659L51.158 1.31409Z" fill="#93AFD6"/>
<path d="M43.1657 30.2777C46.5743 28.1641 49.5527 29.0151 51.3403 30.3725C52.0734 30.9275 52.441 31.205 52.6561 31.205C52.8712 31.205 53.2389 30.9275 53.9719 30.3725C55.7595 29.0151 58.7356 28.1641 62.1466 30.2777C66.6235 33.0527 67.6364 42.2009 57.3135 49.9199C55.3455 51.3907 54.3627 52.1261 52.6561 52.1261C50.9495 52.1261 49.9667 51.3907 48.0011 49.9199C37.6758 42.2009 38.6887 33.0503 43.1657 30.2777Z" stroke="black" stroke-width="2.5" stroke-linecap="round"/>
<path d="M33 56.751H38.5384C39.2183 56.751 39.8889 56.9036 40.4971 57.1996L45.2192 59.4843C45.8274 59.778 46.498 59.9306 47.1802 59.9306H49.5898C51.9208 59.9306 53.8124 61.7598 53.8124 64.0168C53.8124 64.1093 53.75 64.1879 53.6598 64.2134L47.7837 65.8391C46.7294 66.1303 45.6051 66.0284 44.6202 65.5523L39.5721 63.1103" stroke="black" stroke-width="2.5" stroke-linecap="round" stroke-linejoin="round"/>
<path d="M53.8124 62.5321L64.4336 59.2692C65.3583 58.9855 66.349 59.0011 67.2642 59.3138C68.1795 59.6265 68.9726 60.2203 69.5304 61.0105C70.3837 62.1899 70.0368 63.8826 68.7927 64.5995L51.4143 74.6287C50.8709 74.9432 50.2692 75.1436 49.6458 75.218C49.0225 75.2923 48.3905 75.239 47.7884 75.0612L33 70.6721" stroke="black" stroke-width="2.5" stroke-linecap="round" stroke-linejoin="round"/>
</svg>
