<svg width="104" height="104" viewBox="0 0 104 104" fill="none" xmlns="http://www.w3.org/2000/svg">
<path d="M51.158 1.31409C51.5514 0.700082 52.4486 0.70008 52.842 1.31409L61.333 14.5659C61.6116 15.0008 62.1756 15.152 62.6344 14.9147L76.6138 7.68372C77.2615 7.34868 78.0384 7.79725 78.0721 8.5257L78.7996 24.2477C78.8235 24.7636 79.2364 25.1765 79.7523 25.2004L95.4743 25.9279C96.2028 25.9616 96.6513 26.7385 96.3163 27.3862L89.0853 41.3656C88.848 41.8243 88.9992 42.3884 89.4341 42.667L102.686 51.158C103.3 51.5514 103.3 52.4486 102.686 52.842L89.4341 61.333C88.9992 61.6116 88.848 62.1756 89.0853 62.6344L96.3163 76.6138C96.6513 77.2615 96.2028 78.0384 95.4743 78.0721L79.7523 78.7996C79.2364 78.8235 78.8235 79.2364 78.7996 79.7523L78.0721 95.4743C78.0384 96.2028 77.2615 96.6513 76.6138 96.3163L62.6344 89.0853C62.1757 88.848 61.6116 88.9992 61.333 89.4341L52.842 102.686C52.4486 103.3 51.5514 103.3 51.158 102.686L42.667 89.4341C42.3884 88.9992 41.8244 88.848 41.3656 89.0853L27.3862 96.3163C26.7385 96.6513 25.9616 96.2028 25.9279 95.4743L25.2004 79.7523C25.1765 79.2364 24.7636 78.8235 24.2477 78.7996L8.52571 78.0721C7.79725 78.0384 7.34868 77.2615 7.68372 76.6138L14.9147 62.6344C15.152 62.1756 15.0008 61.6116 14.5659 61.333L1.31409 52.842C0.700082 52.4486 0.70008 51.5514 1.31409 51.158L14.5659 42.667C15.0008 42.3884 15.152 41.8244 14.9147 41.3656L7.68372 27.3862C7.34868 26.7385 7.79725 25.9616 8.5257 25.9279L24.2477 25.2004C24.7636 25.1765 25.1765 24.7636 25.2004 24.2477L25.9279 8.52571C25.9616 7.79725 26.7385 7.34868 27.3862 7.68372L41.3656 14.9147C41.8244 15.152 42.3884 15.0008 42.667 14.5659L51.158 1.31409Z" fill="#FFB6C1"/>
<path d="M54.9774 71.56C61.9649 70.1758 71 65.2028 71 52.3447C71 40.6452 62.3427 32.8529 56.1174 29.273C54.7338 28.477 53.1176 29.5229 53.1176 31.1039V35.1459C53.1176 38.3345 51.7631 44.1544 47.9988 46.5756C46.0765 47.8117 43.9976 45.9609 43.7652 43.7055L43.5729 41.8525C43.3494 39.6988 41.132 38.392 39.3929 39.7054C36.2658 42.0604 33 46.1953 33 52.3424C33 68.0663 44.8225 72 50.7326 72C51.0783 72 51.4389 71.9889 51.8145 71.9668C48.8952 71.7214 44.1765 69.9303 44.1765 64.137C44.1765 59.604 47.5182 56.5415 50.0575 55.0489C50.7415 54.6509 51.5395 55.1706 51.5395 55.9555V57.2601C51.5395 58.2552 51.9307 59.8141 52.8584 60.8799C53.9089 62.0872 55.4491 60.8224 55.572 59.2347C55.6122 58.735 56.1219 58.4166 56.56 58.6687C57.9928 59.4979 59.8235 61.2668 59.8235 64.137C59.8235 68.6655 57.2999 70.7485 54.9774 71.56Z" fill="black"/>
</svg>
